<svg xmlns="http://www.w3.org/2000/svg" xmlns:xlink="http://www.w3.org/1999/xlink" width="2525" height="1089" fill="#000" fill-opacity="1" stroke="#000" stroke-dasharray="none" stroke-dashoffset="0" stroke-linecap="square" stroke-linejoin="miter" stroke-miterlimit="10" stroke-opacity="1" stroke-width="1" color-interpolation="auto" color-rendering="auto" font-family="'Dialog'" font-size="12" font-style="normal" font-weight="normal" image-rendering="auto" shape-rendering="auto" text-rendering="auto"><g><defs id="defs1"><clipPath id="clipPath1" clipPathUnits="userSpaceOnUse"><path d="M0 0 L2525 0 L2525 1089 L0 1089 L0 0 Z"/></clipPath><clipPath id="clipPath2" clipPathUnits="userSpaceOnUse"><path d="M-1702 217 L823 217 L823 1306 L-1702 1306 L-1702 217 Z"/></clipPath></defs><g fill="#fff" stroke="#fff" shape-rendering="geometricPrecision" text-rendering="geometricPrecision" transform="translate(1702,-217)"><rect width="2525" height="1089" x="-1702" y="217" stroke="none" clip-path="url(#clipPath2)"/></g><g stroke-linecap="butt" stroke-miterlimit="1.45" font-size="32" font-weight="bold" shape-rendering="geometricPrecision" text-rendering="geometricPrecision" transform="matrix(1,0,0,1,1702,-217)"><text x="-878.127" y="271.17" stroke="none" clip-path="url(#clipPath2)" xml:space="preserve">System level</text><rect width="734.797" height="1055.24" x="-884.127" y="235.467" fill="none" stroke-width="5" clip-path="url(#clipPath2)" rx="4" ry="4"/><text x="-52.009" y="268.7" stroke="none" clip-path="url(#clipPath2)" xml:space="preserve">Host/Aggregate system level</text><rect width="865.109" height="1055.24" x="-58.009" y="232.997" fill="none" stroke-width="5" clip-path="url(#clipPath2)" rx="4" ry="4"/></g><g fill="#CFF" stroke="#CFF" shape-rendering="geometricPrecision" text-rendering="geometricPrecision" transform="matrix(1,0,0,1,1702,-217)"><rect width="594.784" height="68" x="-798.375" y="587.559" stroke="none" clip-path="url(#clipPath2)" rx="4" ry="4"/></g><g stroke-linecap="butt" stroke-miterlimit="1.45" font-size="32" font-weight="bold" shape-rendering="geometricPrecision" text-rendering="geometricPrecision" transform="matrix(1,0,0,1,1702,-217)"><text x="-757.178" y="632.637" stroke="none" clip-path="url(#clipPath2)" xml:space="preserve">sys.keystone.control.cluster</text><rect width="594.784" height="68" x="-798.375" y="587.559" fill="none" stroke-width="5" clip-path="url(#clipPath2)" rx="4" ry="4"/></g><g fill="#CFF" stroke="#CFF" shape-rendering="geometricPrecision" text-rendering="geometricPrecision" transform="matrix(1,0,0,1,1702,-217)"><rect width="594.784" height="68" x="-798.375" y="489.559" stroke="none" clip-path="url(#clipPath2)" rx="4" ry="4"/></g><g stroke-linecap="butt" stroke-miterlimit="1.45" font-size="32" font-weight="bold" shape-rendering="geometricPrecision" text-rendering="geometricPrecision" transform="matrix(1,0,0,1,1702,-217)"><text x="-731.405" y="534.637" stroke="none" clip-path="url(#clipPath2)" xml:space="preserve">sys.cinder.control.cluster</text><rect width="594.784" height="68" x="-798.375" y="489.559" fill="none" stroke-width="5" clip-path="url(#clipPath2)" rx="4" ry="4"/></g><g fill="#CFF" stroke="#CFF" shape-rendering="geometricPrecision" text-rendering="geometricPrecision" transform="matrix(1,0,0,1,1702,-217)"><rect width="557.063" height="68" x="-1607.75" y="416.763" stroke="none" clip-path="url(#clipPath2)" rx="4" ry="4"/></g><g stroke-linecap="butt" stroke-miterlimit="1.45" font-size="32" font-weight="bold" shape-rendering="geometricPrecision" text-rendering="geometricPrecision" transform="matrix(1,0,0,1,1702,-217)"><text x="-1559.602" y="461.841" stroke="none" clip-path="url(#clipPath2)" xml:space="preserve">svc.cinder.control.cluster</text><rect width="557.063" height="68" x="-1607.75" y="416.763" fill="none" stroke-width="5" clip-path="url(#clipPath2)" rx="4" ry="4"/></g><g fill="#CFF" stroke="#CFF" shape-rendering="geometricPrecision" text-rendering="geometricPrecision" transform="matrix(1,0,0,1,1702,-217)"><rect width="668.885" height="68" x="74.672" y="551.057" stroke="none" clip-path="url(#clipPath2)" rx="4" ry="4"/></g><g stroke-linecap="butt" stroke-miterlimit="1.45" font-size="32" font-weight="bold" shape-rendering="geometricPrecision" text-rendering="geometricPrecision" transform="matrix(1,0,0,1,1702,-217)"><text x="114.521" y="596.135" stroke="none" clip-path="url(#clipPath2)" xml:space="preserve">sys.openstack.control.tcp_vpc16</text><rect width="668.885" height="68" x="74.672" y="551.057" fill="none" stroke-width="5" clip-path="url(#clipPath2)" rx="4" ry="4"/></g><g fill="#CFF" stroke="#CFF" shape-rendering="geometricPrecision" text-rendering="geometricPrecision" transform="matrix(1,0,0,1,1702,-217)"><rect width="594.784" height="68" x="-798.375" y="794.151" stroke="none" clip-path="url(#clipPath2)" rx="4" ry="4"/></g><g stroke-linecap="butt" stroke-miterlimit="1.45" font-size="32" font-weight="bold" shape-rendering="geometricPrecision" text-rendering="geometricPrecision" transform="matrix(1,0,0,1,1702,-217)"><text x="-731.928" y="839.229" stroke="none" clip-path="url(#clipPath2)" xml:space="preserve">sys.collectd.client.carbon</text><rect width="594.784" height="68" x="-798.375" y="794.151" fill="none" stroke-width="5" clip-path="url(#clipPath2)" rx="4" ry="4"/></g><g fill="#CFF" stroke="#CFF" shape-rendering="geometricPrecision" text-rendering="geometricPrecision" transform="matrix(1,0,0,1,1702,-217)"><rect width="557.063" height="68" x="-1607.75" y="836.248" stroke="none" clip-path="url(#clipPath2)" rx="4" ry="4"/></g><g stroke-linecap="butt" stroke-miterlimit="1.45" font-size="32" font-weight="bold" shape-rendering="geometricPrecision" text-rendering="geometricPrecision" transform="matrix(1,0,0,1,1702,-217)"><text x="-1560.125" y="881.327" stroke="none" clip-path="url(#clipPath2)" xml:space="preserve">svc.collectd.client.carbon</text><rect width="557.063" height="68" x="-1607.75" y="836.248" fill="none" stroke-width="5" clip-path="url(#clipPath2)" rx="4" ry="4"/></g><g fill="#CFF" stroke="#CFF" shape-rendering="geometricPrecision" text-rendering="geometricPrecision" transform="matrix(1,0,0,1,1702,-217)"><rect width="360.188" height="68" x="229.021" y="762.984" stroke="none" clip-path="url(#clipPath2)" rx="4" ry="4"/></g><g stroke-linecap="butt" stroke-miterlimit="1.45" font-size="32" font-weight="bold" shape-rendering="geometricPrecision" text-rendering="geometricPrecision" transform="matrix(1,0,0,1,1702,-217)"><text x="266.49" y="808.063" stroke="none" clip-path="url(#clipPath2)" xml:space="preserve">Controller by ID</text><rect width="360.188" height="68" x="229.021" y="762.984" fill="none" stroke-width="5" clip-path="url(#clipPath2)" rx="4" ry="4"/></g><g fill="#CFF" stroke="#CFF" shape-rendering="geometricPrecision" text-rendering="geometricPrecision" transform="matrix(1,0,0,1,1702,-217)"><rect width="557.063" height="68" x="-1607.75" y="514.763" stroke="none" clip-path="url(#clipPath2)" rx="4" ry="4"/></g><g stroke-linecap="butt" stroke-miterlimit="1.45" font-size="32" font-weight="bold" shape-rendering="geometricPrecision" text-rendering="geometricPrecision" transform="matrix(1,0,0,1,1702,-217)"><text x="-1550.164" y="559.841" stroke="none" clip-path="url(#clipPath2)" xml:space="preserve">svc.mysql.server.cluster</text><rect width="557.063" height="68" x="-1607.75" y="514.763" fill="none" stroke-width="5" clip-path="url(#clipPath2)" rx="4" ry="4"/></g><g fill="#CFF" stroke="#CFF" shape-rendering="geometricPrecision" text-rendering="geometricPrecision" transform="matrix(1,0,0,1,1702,-217)"><rect width="557.063" height="68" x="-1607.75" y="621.925" stroke="none" clip-path="url(#clipPath2)" rx="4" ry="4"/></g><g stroke-linecap="butt" stroke-miterlimit="1.45" font-size="32" font-weight="bold" shape-rendering="geometricPrecision" text-rendering="geometricPrecision" transform="matrix(1,0,0,1,1702,-217)"><text x="-1585.375" y="667.003" stroke="none" clip-path="url(#clipPath2)" xml:space="preserve">svc.keystone.control.cluster</text><rect width="557.063" height="68" x="-1607.75" y="621.925" fill="none" stroke-width="5" clip-path="url(#clipPath2)" rx="4" ry="4"/></g><g fill="#CFF" stroke="#CFF" shape-rendering="geometricPrecision" text-rendering="geometricPrecision" transform="matrix(1,0,0,1,1702,-217)"><rect width="557.063" height="68" x="-1607.75" y="1148.572" stroke="none" clip-path="url(#clipPath2)" rx="4" ry="4"/></g><g stroke-linecap="butt" stroke-miterlimit="1.45" font-size="32" font-weight="bold" shape-rendering="geometricPrecision" text-rendering="geometricPrecision" transform="matrix(1,0,0,1,1702,-217)"><text x="-1556.547" y="1193.65" stroke="none" clip-path="url(#clipPath2)" xml:space="preserve">svc.openssh.client.single</text><rect width="557.063" height="68" x="-1607.75" y="1148.572" fill="none" stroke-width="5" clip-path="url(#clipPath2)" rx="4" ry="4"/></g><g fill="#CFF" stroke="#CFF" shape-rendering="geometricPrecision" text-rendering="geometricPrecision" transform="matrix(1,0,0,1,1702,-217)"><rect width="557.063" height="68" x="-1607.75" y="729.087" stroke="none" clip-path="url(#clipPath2)" rx="4" ry="4"/></g><g stroke-linecap="butt" stroke-miterlimit="1.45" font-size="32" font-weight="bold" shape-rendering="geometricPrecision" text-rendering="geometricPrecision" transform="matrix(1,0,0,1,1702,-217)"><text x="-1579.453" y="774.165" stroke="none" clip-path="url(#clipPath2)" xml:space="preserve">svc.rabbitmq.server.cluster</text><rect width="557.063" height="68" x="-1607.75" y="729.087" fill="none" stroke-width="5" clip-path="url(#clipPath2)" rx="4" ry="4"/></g><g fill="#CFF" stroke="#CFF" shape-rendering="geometricPrecision" text-rendering="geometricPrecision" transform="matrix(1,0,0,1,1702,-217)"><rect width="557.063" height="68" x="-1607.75" y="1050.572" stroke="none" clip-path="url(#clipPath2)" rx="4" ry="4"/></g><g stroke-linecap="butt" stroke-miterlimit="1.45" font-size="32" font-weight="bold" shape-rendering="geometricPrecision" text-rendering="geometricPrecision" transform="matrix(1,0,0,1,1702,-217)"><text x="-1563.641" y="1095.65" stroke="none" clip-path="url(#clipPath2)" xml:space="preserve">svc.openssh.server.single</text><rect width="557.063" height="68" x="-1607.75" y="1050.572" fill="none" stroke-width="5" clip-path="url(#clipPath2)" rx="4" ry="4"/></g><g fill="#CFF" stroke="#CFF" shape-rendering="geometricPrecision" text-rendering="geometricPrecision" transform="matrix(1,0,0,1,1702,-217)"><rect width="557.063" height="68" x="-1607.75" y="943.41" stroke="none" clip-path="url(#clipPath2)" rx="4" ry="4"/></g><g stroke-linecap="butt" stroke-miterlimit="1.45" font-size="32" font-weight="bold" shape-rendering="geometricPrecision" text-rendering="geometricPrecision" transform="matrix(1,0,0,1,1702,-217)"><text x="-1511.914" y="988.488" stroke="none" clip-path="url(#clipPath2)" xml:space="preserve">svc.ntp.client.single</text><rect width="557.063" height="68" x="-1607.75" y="943.41" fill="none" stroke-width="5" clip-path="url(#clipPath2)" rx="4" ry="4"/></g><g fill="#CFF" stroke="#CFF" shape-rendering="geometricPrecision" text-rendering="geometricPrecision" transform="matrix(1,0,0,1,1702,-217)"><rect width="557.063" height="68" x="-1607.75" y="318.763" stroke="none" clip-path="url(#clipPath2)" rx="4" ry="4"/></g><g stroke-linecap="butt" stroke-miterlimit="1.45" font-size="32" font-weight="bold" shape-rendering="geometricPrecision" text-rendering="geometricPrecision" transform="matrix(1,0,0,1,1702,-217)"><text x="-1555.438" y="363.841" stroke="none" clip-path="url(#clipPath2)" xml:space="preserve">svc.haproxy.proxy.single</text><rect width="557.063" height="68" x="-1607.75" y="318.763" fill="none" stroke-width="5" clip-path="url(#clipPath2)" rx="4" ry="4"/><text x="-1680.807" y="268.7" stroke="none" clip-path="url(#clipPath2)" xml:space="preserve">Service level</text><rect width="711.359" height="1055.24" x="-1686.807" y="232.997" fill="none" stroke-width="5" clip-path="url(#clipPath2)" rx="4" ry="4"/></g><g fill="#CFF" stroke="#CFF" shape-rendering="geometricPrecision" text-rendering="geometricPrecision" transform="matrix(1,0,0,1,1702,-217)"><rect width="598.362" height="68" x="-801.953" y="1050.572" stroke="none" clip-path="url(#clipPath2)" rx="4" ry="4"/></g><g stroke-linecap="butt" stroke-miterlimit="1.45" font-size="32" font-weight="bold" shape-rendering="geometricPrecision" text-rendering="geometricPrecision" transform="matrix(1,0,0,1,1702,-217)"><text x="-730.624" y="1095.65" stroke="none" clip-path="url(#clipPath2)" xml:space="preserve">sys.linux.system.vmware</text><rect width="598.362" height="68" x="-801.953" y="1050.572" fill="none" stroke-width="5" clip-path="url(#clipPath2)" rx="4" ry="4"/></g><g fill="#CFF" stroke="#CFF" shape-rendering="geometricPrecision" text-rendering="geometricPrecision" transform="matrix(1,0,0,1,1702,-217)"><rect width="594.784" height="68" x="-798.375" y="696.151" stroke="none" clip-path="url(#clipPath2)" rx="4" ry="4"/></g><g stroke-linecap="butt" stroke-miterlimit="1.45" font-size="32" font-weight="bold" shape-rendering="geometricPrecision" text-rendering="geometricPrecision" transform="matrix(1,0,0,1,1702,-217)"><text x="-765.155" y="741.229" stroke="none" clip-path="url(#clipPath2)" xml:space="preserve">sys.ssh.server.team.cloudlab</text><rect width="594.784" height="68" x="-798.375" y="696.151" fill="none" stroke-width="5" clip-path="url(#clipPath2)" rx="4" ry="4"/><path fill="none" stroke-width="5" d="M-1050.655 450.7628 L-798.3869 534.5328" clip-path="url(#clipPath2)"/><path fill="none" stroke-width="5" d="M-203.5759 523.5665 L74.6639 585.0565" clip-path="url(#clipPath2)"/><path fill="none" stroke-width="5" d="M-203.5759 621.5545 L74.6639 585.0565" clip-path="url(#clipPath2)"/><path fill="none" stroke-width="5" d="M-1050.6705 870.2433 L-798.3871 828.1561" clip-path="url(#clipPath2)"/><path fill="none" stroke-width="5" d="M409.1146 619.0757 L409.1146 762.975" clip-path="url(#clipPath2)"/><path fill="none" stroke-width="5" d="M-197.2348 728.5839 L228.9989 796.9844" clip-path="url(#clipPath2)"/><path fill="none" stroke-width="5" d="M-203.5946 828.149 L228.9989 796.9844" clip-path="url(#clipPath2)"/><path fill="none" stroke-width="5" d="M-1050.655 548.7628 L-798.4007 531.5" clip-path="url(#clipPath2)"/><path fill="none" stroke-width="5" d="M-1050.655 548.7628 L-798.376 621.55" clip-path="url(#clipPath2)"/><path fill="none" stroke-width="5" d="M-1050.655 655.9247 L-798.376 621.5632" clip-path="url(#clipPath2)"/><path fill="none" stroke-width="5" d="M-1050.6805 768.6308 L-798.3827 529.5194" clip-path="url(#clipPath2)"/><path fill="none" stroke-width="5" d="M-1050.6851 1182.5602 L-801.9603 1084.5721" clip-path="url(#clipPath2)"/><path fill="none" stroke-width="5" d="M-1050.6709 977.4233 L-801.9603 1084.5721" clip-path="url(#clipPath2)"/><path fill="none" stroke-width="5" d="M-1050.6709 1084.5721 L-801.9603 1084.5721" clip-path="url(#clipPath2)"/><path fill="none" stroke-width="5" d="M-203.5663 1084.5546 L228.9989 796.9844" clip-path="url(#clipPath2)"/></g></g></svg>