<svg xmlns="http://www.w3.org/2000/svg" xmlns:xlink="http://www.w3.org/1999/xlink" width="3505" height="2072" fill="#000" fill-opacity="1" stroke="#000" stroke-dasharray="none" stroke-dashoffset="0" stroke-linecap="square" stroke-linejoin="miter" stroke-miterlimit="10" stroke-opacity="1" stroke-width="1" color-interpolation="auto" color-rendering="auto" font-family="'Dialog'" font-size="12" font-style="normal" font-weight="normal" image-rendering="auto" shape-rendering="auto" text-rendering="auto"><g><defs id="defs1"><clipPath id="clipPath1" clipPathUnits="userSpaceOnUse"><path d="M0 0 L3505 0 L3505 2072 L0 2072 L0 0 Z"/></clipPath><clipPath id="clipPath2" clipPathUnits="userSpaceOnUse"><path d="M-1067 -777 L2438 -777 L2438 1295 L-1067 1295 L-1067 -777 Z"/></clipPath></defs><g fill="#fff" stroke="#fff" shape-rendering="geometricPrecision" text-rendering="geometricPrecision" transform="translate(1067,777)"><rect width="3505" height="2072" x="-1067" y="-777" stroke="none" clip-path="url(#clipPath2)"/></g><g stroke-linecap="butt" stroke-miterlimit="1.45" font-size="32" font-weight="bold" shape-rendering="geometricPrecision" text-rendering="geometricPrecision" transform="matrix(1,0,0,1,1067,777)"><text x="-1045.493" y="986.64" stroke="none" clip-path="url(#clipPath2)" xml:space="preserve">Storage Device Y</text><rect width="764.274" height="289.809" x="-1051.493" y="950.937" fill="none" stroke-width="5" clip-path="url(#clipPath2)" rx="4" ry="4"/><text x="-1045.493" y="580.813" stroke="none" clip-path="url(#clipPath2)" xml:space="preserve">Network Device X</text><rect width="764.274" height="289.809" x="-1051.493" y="545.11" fill="none" stroke-width="5" clip-path="url(#clipPath2)" rx="4" ry="4"/><text x="-1045.493" y="-10.252" stroke="none" clip-path="url(#clipPath2)" xml:space="preserve">Server X</text><rect width="764.274" height="434.563" x="-1051.493" y="-45.955" fill="none" stroke-width="5" clip-path="url(#clipPath2)" rx="4" ry="4"/></g><g fill="#FF9" stroke="#FF9" shape-rendering="geometricPrecision" text-rendering="geometricPrecision" transform="matrix(1,0,0,1,1067,777)"><rect width="649.015" height="156.415" x="-69.413" y="150.103" stroke="none" clip-path="url(#clipPath2)" rx="4" ry="4"/></g><g stroke-linecap="butt" stroke-miterlimit="1.45" font-size="32" font-weight="bold" shape-rendering="geometricPrecision" text-rendering="geometricPrecision" transform="matrix(1,0,0,1,1067,777)"><text x="127.016" y="202.139" stroke="none" clip-path="url(#clipPath2)" xml:space="preserve">service1.role1</text><text x="236.86" y="239.389" stroke="none" clip-path="url(#clipPath2)" xml:space="preserve">...</text><text x="122.501" y="276.639" stroke="none" clip-path="url(#clipPath2)" xml:space="preserve">serviceN.roleN</text><rect width="649.015" height="156.415" x="-69.413" y="150.103" fill="none" stroke-width="5" clip-path="url(#clipPath2)" rx="4" ry="4"/></g><g fill="#CFF" stroke="#CFF" shape-rendering="geometricPrecision" text-rendering="geometricPrecision" transform="matrix(1,0,0,1,1067,777)"><rect width="309.508" height="68" x="-69.413" y="20.593" stroke="none" clip-path="url(#clipPath2)" rx="4" ry="4"/></g><g stroke-linecap="butt" stroke-miterlimit="1.45" font-size="32" font-weight="bold" shape-rendering="geometricPrecision" text-rendering="geometricPrecision" transform="matrix(1,0,0,1,1067,777)"><text x="-24.324" y="65.671" stroke="none" clip-path="url(#clipPath2)" xml:space="preserve">sensu-client</text><rect width="309.508" height="68" x="-69.413" y="20.593" fill="none" stroke-width="5" clip-path="url(#clipPath2)" rx="4" ry="4"/></g><g fill="#CFC" stroke="#CFC" shape-rendering="geometricPrecision" text-rendering="geometricPrecision" transform="matrix(1,0,0,1,1067,777)"><rect width="309.508" height="68" x="270.094" y="20.593" stroke="none" clip-path="url(#clipPath2)" rx="4" ry="4"/></g><g stroke-linecap="butt" stroke-miterlimit="1.45" font-size="32" font-weight="bold" shape-rendering="geometricPrecision" text-rendering="geometricPrecision" transform="matrix(1,0,0,1,1067,777)"><text x="296.981" y="65.671" stroke="none" clip-path="url(#clipPath2)" xml:space="preserve">collectd-client</text><rect width="309.508" height="68" x="270.094" y="20.593" fill="none" stroke-width="5" clip-path="url(#clipPath2)" rx="4" ry="4"/></g><g fill="#C9F" stroke="#C9F" shape-rendering="geometricPrecision" text-rendering="geometricPrecision" transform="matrix(1,0,0,1,1067,777)"><rect width="364.449" height="111.375" x="801.871" y="-627.273" stroke="none" clip-path="url(#clipPath2)" rx="4" ry="4"/></g><g stroke-linecap="butt" stroke-miterlimit="1.45" font-size="32" font-weight="bold" shape-rendering="geometricPrecision" text-rendering="geometricPrecision" transform="matrix(1,0,0,1,1067,777)"><text x="837.165" y="-560.508" stroke="none" clip-path="url(#clipPath2)" xml:space="preserve">rabbitmq-server</text><rect width="364.449" height="111.375" x="801.871" y="-627.273" fill="none" stroke-width="5" clip-path="url(#clipPath2)" rx="4" ry="4"/></g><g fill="#FF9" stroke="#FF9" shape-rendering="geometricPrecision" text-rendering="geometricPrecision" transform="matrix(1,0,0,1,1067,777)"><rect width="649.015" height="163.825" x="-993.864" y="146.398" stroke="none" clip-path="url(#clipPath2)" rx="4" ry="4"/></g><g stroke-linecap="butt" stroke-miterlimit="1.45" font-size="32" font-weight="bold" shape-rendering="geometricPrecision" text-rendering="geometricPrecision" transform="matrix(1,0,0,1,1067,777)"><text x="-797.434" y="202.139" stroke="none" clip-path="url(#clipPath2)" xml:space="preserve">service1.role1</text><text x="-687.59" y="239.389" stroke="none" clip-path="url(#clipPath2)" xml:space="preserve">...</text><text x="-801.95" y="276.639" stroke="none" clip-path="url(#clipPath2)" xml:space="preserve">serviceN.roleN</text><rect width="649.015" height="163.825" x="-993.864" y="146.398" fill="none" stroke-width="5" clip-path="url(#clipPath2)" rx="4" ry="4"/></g><g fill="#CFF" stroke="#CFF" shape-rendering="geometricPrecision" text-rendering="geometricPrecision" transform="matrix(1,0,0,1,1067,777)"><rect width="309.508" height="68" x="-993.864" y="20.593" stroke="none" clip-path="url(#clipPath2)" rx="4" ry="4"/></g><g stroke-linecap="butt" stroke-miterlimit="1.45" font-size="32" font-weight="bold" shape-rendering="geometricPrecision" text-rendering="geometricPrecision" transform="matrix(1,0,0,1,1067,777)"><text x="-948.774" y="65.671" stroke="none" clip-path="url(#clipPath2)" xml:space="preserve">sensu-client</text><rect width="309.508" height="68" x="-993.864" y="20.593" fill="none" stroke-width="5" clip-path="url(#clipPath2)" rx="4" ry="4"/></g><g fill="#CFC" stroke="#CFC" shape-rendering="geometricPrecision" text-rendering="geometricPrecision" transform="matrix(1,0,0,1,1067,777)"><rect width="309.508" height="68" x="-654.356" y="20.593" stroke="none" clip-path="url(#clipPath2)" rx="4" ry="4"/></g><g stroke-linecap="butt" stroke-miterlimit="1.45" font-size="32" font-weight="bold" shape-rendering="geometricPrecision" text-rendering="geometricPrecision" transform="matrix(1,0,0,1,1067,777)"><text x="-627.469" y="65.671" stroke="none" clip-path="url(#clipPath2)" xml:space="preserve">collectd-client</text><rect width="309.508" height="68" x="-654.356" y="20.593" fill="none" stroke-width="5" clip-path="url(#clipPath2)" rx="4" ry="4"/></g><g fill="#CFF" stroke="#CFF" shape-rendering="geometricPrecision" text-rendering="geometricPrecision" transform="matrix(1,0,0,1,1067,777)"><rect width="364.449" height="111.375" x="433.101" y="934.04" stroke="none" clip-path="url(#clipPath2)" rx="4" ry="4"/></g><g stroke-linecap="butt" stroke-miterlimit="1.45" font-size="32" font-weight="bold" shape-rendering="geometricPrecision" text-rendering="geometricPrecision" transform="matrix(1,0,0,1,1067,777)"><text x="480.161" y="1000.805" stroke="none" clip-path="url(#clipPath2)" xml:space="preserve">redis-database</text><rect width="364.449" height="111.375" x="433.101" y="934.04" fill="none" stroke-width="5" clip-path="url(#clipPath2)" rx="4" ry="4"/></g><g fill="#CFF" stroke="#CFF" shape-rendering="geometricPrecision" text-rendering="geometricPrecision" transform="matrix(1,0,0,1,1067,777)"><rect width="309.508" height="68" x="433.101" y="699.166" stroke="none" clip-path="url(#clipPath2)" rx="4" ry="4"/></g><g stroke-linecap="butt" stroke-miterlimit="1.45" font-size="32" font-weight="bold" shape-rendering="geometricPrecision" text-rendering="geometricPrecision" transform="matrix(1,0,0,1,1067,777)"><text x="478.191" y="744.244" stroke="none" clip-path="url(#clipPath2)" xml:space="preserve">sensu-client</text><rect width="309.508" height="68" x="433.101" y="699.166" fill="none" stroke-width="5" clip-path="url(#clipPath2)" rx="4" ry="4"/></g><g fill="#CFC" stroke="#CFC" shape-rendering="geometricPrecision" text-rendering="geometricPrecision" transform="matrix(1,0,0,1,1067,777)"><rect width="649.015" height="166" x="1575.9" y="-679.816" stroke="none" clip-path="url(#clipPath2)" rx="4" ry="4"/></g><g stroke-linecap="butt" stroke-miterlimit="1.45" font-size="32" font-weight="bold" shape-rendering="geometricPrecision" text-rendering="geometricPrecision" transform="matrix(1,0,0,1,1067,777)"><text x="1733.478" y="-585.738" stroke="none" clip-path="url(#clipPath2)" xml:space="preserve">graphite-database</text><rect width="649.015" height="166" x="1575.9" y="-679.816" fill="none" stroke-width="5" clip-path="url(#clipPath2)" rx="4" ry="4"/></g><g fill="#CFF" stroke="#CFF" shape-rendering="geometricPrecision" text-rendering="geometricPrecision" transform="matrix(1,0,0,1,1067,777)"><rect width="309.508" height="68" x="818.593" y="699.166" stroke="none" clip-path="url(#clipPath2)" rx="4" ry="4"/></g><g stroke-linecap="butt" stroke-miterlimit="1.45" font-size="32" font-weight="bold" shape-rendering="geometricPrecision" text-rendering="geometricPrecision" transform="matrix(1,0,0,1,1067,777)"><text x="856.589" y="744.244" stroke="none" clip-path="url(#clipPath2)" xml:space="preserve">sensu-server</text><rect width="309.508" height="68" x="818.593" y="699.166" fill="none" stroke-width="5" clip-path="url(#clipPath2)" rx="4" ry="4"/></g><g fill="#CFC" stroke="#CFC" shape-rendering="geometricPrecision" text-rendering="geometricPrecision" transform="matrix(1,0,0,1,1067,777)"><rect width="309.508" height="68" x="1575.9" y="-483.816" stroke="none" clip-path="url(#clipPath2)" rx="4" ry="4"/></g><g stroke-linecap="butt" stroke-miterlimit="1.45" font-size="32" font-weight="bold" shape-rendering="geometricPrecision" text-rendering="geometricPrecision" transform="matrix(1,0,0,1,1067,777)"><text x="1587.967" y="-438.738" stroke="none" clip-path="url(#clipPath2)" xml:space="preserve">carbon-services</text><rect width="309.508" height="68" x="1575.9" y="-483.816" fill="none" stroke-width="5" clip-path="url(#clipPath2)" rx="4" ry="4"/></g><g fill="#CFF" stroke="#CFF" shape-rendering="geometricPrecision" text-rendering="geometricPrecision" transform="matrix(1,0,0,1,1067,777)"><rect width="309.508" height="68" x="510.224" y="1132.078" stroke="none" clip-path="url(#clipPath2)" rx="4" ry="4"/></g><g stroke-linecap="butt" stroke-miterlimit="1.45" font-size="32" font-weight="bold" shape-rendering="geometricPrecision" text-rendering="geometricPrecision" transform="matrix(1,0,0,1,1067,777)"><text x="577.923" y="1177.157" stroke="none" clip-path="url(#clipPath2)" xml:space="preserve">sensu-api</text><rect width="309.508" height="68" x="510.224" y="1132.078" fill="none" stroke-width="5" clip-path="url(#clipPath2)" rx="4" ry="4"/></g><g fill="#CFC" stroke="#CFC" shape-rendering="geometricPrecision" text-rendering="geometricPrecision" transform="matrix(1,0,0,1,1067,777)"><rect width="309.508" height="68" x="1915.408" y="-483.816" stroke="none" clip-path="url(#clipPath2)" rx="4" ry="4"/></g><g stroke-linecap="butt" stroke-miterlimit="1.45" font-size="32" font-weight="bold" shape-rendering="geometricPrecision" text-rendering="geometricPrecision" transform="matrix(1,0,0,1,1067,777)"><text x="1958.818" y="-438.738" stroke="none" clip-path="url(#clipPath2)" xml:space="preserve">graphite-api</text><rect width="309.508" height="68" x="1915.408" y="-483.816" fill="none" stroke-width="5" clip-path="url(#clipPath2)" rx="4" ry="4"/></g><g fill="#FF9" stroke="#FF9" shape-rendering="geometricPrecision" text-rendering="geometricPrecision" transform="matrix(1,0,0,1,1067,777)"><rect width="649.015" height="163.825" x="-993.864" y="619.355" stroke="none" clip-path="url(#clipPath2)" rx="4" ry="4"/></g><g stroke-linecap="butt" stroke-miterlimit="1.45" font-size="32" font-weight="bold" shape-rendering="geometricPrecision" text-rendering="geometricPrecision" transform="matrix(1,0,0,1,1067,777)"><text x="-797.434" y="675.096" stroke="none" clip-path="url(#clipPath2)" xml:space="preserve">service1.role1</text><text x="-799.692" y="712.346" stroke="none" clip-path="url(#clipPath2)" xml:space="preserve">service1.roleN</text><text x="-801.95" y="749.596" stroke="none" clip-path="url(#clipPath2)" xml:space="preserve">serviceN.roleN</text><rect width="649.015" height="163.825" x="-993.864" y="619.355" fill="none" stroke-width="5" clip-path="url(#clipPath2)" rx="4" ry="4"/></g><g fill="#FC9" stroke="#FC9" shape-rendering="geometricPrecision" text-rendering="geometricPrecision" transform="matrix(1,0,0,1,1067,777)"><rect width="468.624" height="166" x="1953.641" y="650.166" stroke="none" clip-path="url(#clipPath2)" rx="4" ry="4"/></g><g stroke-linecap="butt" stroke-miterlimit="1.45" font-size="32" font-weight="bold" shape-rendering="geometricPrecision" text-rendering="geometricPrecision" transform="matrix(1,0,0,1,1067,777)"><text x="2102.773" y="706.994" stroke="none" clip-path="url(#clipPath2)" xml:space="preserve">handlers:</text><text x="1998.515" y="744.244" stroke="none" clip-path="url(#clipPath2)" xml:space="preserve">jenkins/salt, hipchat,</text><text x="2019.398" y="781.494" stroke="none" clip-path="url(#clipPath2)" xml:space="preserve">mail, sms, flapjack</text><rect width="468.624" height="166" x="1953.641" y="650.166" fill="none" stroke-width="5" clip-path="url(#clipPath2)" rx="4" ry="4"/></g><g fill="#CFF" stroke="#CFF" shape-rendering="geometricPrecision" text-rendering="geometricPrecision" transform="matrix(1,0,0,1,1067,777)"><rect width="388.613" height="68" x="926.092" y="1136.191" stroke="none" clip-path="url(#clipPath2)" rx="4" ry="4"/></g><g stroke-linecap="butt" stroke-miterlimit="1.45" font-size="32" font-weight="bold" shape-rendering="geometricPrecision" text-rendering="geometricPrecision" transform="matrix(1,0,0,1,1067,777)"><text x="950.554" y="1181.27" stroke="none" clip-path="url(#clipPath2)" xml:space="preserve">horizon-dashboard</text><rect width="388.613" height="68" x="926.092" y="1136.191" fill="none" stroke-width="5" clip-path="url(#clipPath2)" rx="4" ry="4"/></g><g fill="#CFF" stroke="#CFF" shape-rendering="geometricPrecision" text-rendering="geometricPrecision" transform="matrix(1,0,0,1,1067,777)"><rect width="364.449" height="111.375" x="872.948" y="934.04" stroke="none" clip-path="url(#clipPath2)" rx="4" ry="4"/></g><g stroke-linecap="butt" stroke-miterlimit="1.45" font-size="32" font-weight="bold" shape-rendering="geometricPrecision" text-rendering="geometricPrecision" transform="matrix(1,0,0,1,1067,777)"><text x="946.696" y="1000.805" stroke="none" clip-path="url(#clipPath2)" xml:space="preserve">kedb-server</text><rect width="364.449" height="111.375" x="872.948" y="934.04" fill="none" stroke-width="5" clip-path="url(#clipPath2)" rx="4" ry="4"/></g><g fill="#FF9" stroke="#FF9" shape-rendering="geometricPrecision" text-rendering="geometricPrecision" transform="matrix(1,0,0,1,1067,777)"><rect width="649.015" height="163.825" x="-993.864" y="1013.929" stroke="none" clip-path="url(#clipPath2)" rx="4" ry="4"/></g><g stroke-linecap="butt" stroke-miterlimit="1.45" font-size="32" font-weight="bold" shape-rendering="geometricPrecision" text-rendering="geometricPrecision" transform="matrix(1,0,0,1,1067,777)"><text x="-797.434" y="1069.669" stroke="none" clip-path="url(#clipPath2)" xml:space="preserve">service1.role1</text><text x="-799.692" y="1106.919" stroke="none" clip-path="url(#clipPath2)" xml:space="preserve">service1.roleN</text><text x="-801.95" y="1144.169" stroke="none" clip-path="url(#clipPath2)" xml:space="preserve">serviceN.roleN</text><rect width="649.015" height="163.825" x="-993.864" y="1013.929" fill="none" stroke-width="5" clip-path="url(#clipPath2)" rx="4" ry="4"/><text x="278.605" y="1266.361" stroke="none" clip-path="url(#clipPath2)" xml:space="preserve">Monitoring service</text><rect width="1199.237" height="629.742" x="272.605" y="650.166" fill="none" stroke-width="5" clip-path="url(#clipPath2)" rx="4" ry="4"/><text x="1522.112" y="-725.452" stroke="none" clip-path="url(#clipPath2)" xml:space="preserve">Metrics database</text><rect width="768.591" height="397.882" x="1516.112" y="-761.155" fill="none" stroke-width="5" clip-path="url(#clipPath2)" rx="4" ry="4"/><text x="605.8" y="-725.452" stroke="none" clip-path="url(#clipPath2)" xml:space="preserve">Message broker service</text><text x="660.862" y="-688.202" stroke="none" clip-path="url(#clipPath2)" xml:space="preserve">(single/clustered)</text><rect width="768.591" height="397.882" x="599.799" y="-761.155" fill="none" stroke-width="5" clip-path="url(#clipPath2)" rx="4" ry="4"/></g><g fill="#FC9" stroke="#FC9" shape-rendering="geometricPrecision" text-rendering="geometricPrecision" transform="matrix(1,0,0,1,1067,777)"><rect width="468.624" height="166" x="1953.641" y="1087.191" stroke="none" clip-path="url(#clipPath2)" rx="4" ry="4"/></g><g stroke-linecap="butt" stroke-miterlimit="1.45" font-size="32" font-weight="bold" shape-rendering="geometricPrecision" text-rendering="geometricPrecision" transform="matrix(1,0,0,1,1067,777)"><text x="1995.999" y="1144.02" stroke="none" clip-path="url(#clipPath2)" xml:space="preserve">graphical dashboard:</text><text x="1976.64" y="1181.27" stroke="none" clip-path="url(#clipPath2)" xml:space="preserve">checks, clients, events,</text><text x="2120.398" y="1218.52" stroke="none" clip-path="url(#clipPath2)" xml:space="preserve">metrics</text><rect width="468.624" height="166" x="1953.641" y="1087.191" fill="none" stroke-width="5" clip-path="url(#clipPath2)" rx="4" ry="4"/><text x="-121.043" y="-10.252" stroke="none" clip-path="url(#clipPath2)" xml:space="preserve">Server X</text><rect width="764.274" height="434.563" x="-127.043" y="-45.955" fill="none" stroke-width="5" clip-path="url(#clipPath2)" rx="4" ry="4"/><text x="-909.048" y="-598.455" stroke="none" clip-path="url(#clipPath2)" font-family="sans-serif" font-size="66" font-weight="normal" xml:space="preserve">Monitoring System Infrastructure</text></g><g stroke-dasharray="24 8" stroke-linecap="butt" stroke-miterlimit="1.45" stroke-width="4" shape-rendering="geometricPrecision" text-rendering="geometricPrecision"><path fill="none" d="M94.3585 88.612 L134.6008 138.3255" clip-path="url(#clipPath2)" transform="matrix(1,0,0,1,1067,777)"/><path stroke="none" d="M144.1172 150.0816 L140.1481 132.0661 L127.3233 142.4475 Z" clip-path="url(#clipPath2)" transform="matrix(1,0,0,1,1067,777)"/><path fill="none" d="M391.631 88.5854 L342.1003 139.2728" clip-path="url(#clipPath2)" transform="matrix(1,0,0,1,1067,777)"/><path stroke="none" d="M331.5295 150.0905 L348.9619 144.0552 L337.1608 132.5234 Z" clip-path="url(#clipPath2)" transform="matrix(1,0,0,1,1067,777)"/><path fill="none" stroke-dasharray="none" stroke-width="5" d="M134.1346 20.5968 L890.6396 -506.4739" clip-path="url(#clipPath2)" transform="matrix(1,0,0,1,1067,777)"/><path stroke="none" stroke-dasharray="none" stroke-width="5" d="M904.1779 -515.9062 L884.264 -513.0009 L894.5538 -498.232 Z" clip-path="url(#clipPath2)" transform="matrix(1,0,0,1,1067,777)"/><path fill="none" stroke-dasharray="none" stroke-width="5" d="M455.2101 20.5968 L923.3597 -503.5817" clip-path="url(#clipPath2)" transform="matrix(1,0,0,1,1067,777)"/><path stroke="none" stroke-dasharray="none" stroke-width="5" d="M934.3507 -515.8881 L915.6479 -508.458 L929.0732 -496.4678 Z" clip-path="url(#clipPath2)" transform="matrix(1,0,0,1,1067,777)"/></g><g fill="#fff" stroke="#fff" stroke-linecap="butt" stroke-miterlimit="1.45" stroke-width="5" shape-rendering="geometricPrecision" text-rendering="geometricPrecision" transform="matrix(1,0,0,1,1067,777)"><rect width="227.516" height="78.5" x="473.095" y="-166.052" stroke="none" clip-path="url(#clipPath2)"/></g><g stroke-linecap="butt" stroke-miterlimit="1.45" font-family="sans-serif" font-size="32" shape-rendering="geometricPrecision" text-rendering="geometricPrecision"><text x="475.095" y="-134.348" stroke="none" clip-path="url(#clipPath2)" transform="matrix(1,0,0,1,1067,777)" xml:space="preserve">sends metrics</text><text x="498.306" y="-97.098" stroke="none" clip-path="url(#clipPath2)" transform="matrix(1,0,0,1,1067,777)" xml:space="preserve">to graphite</text></g><g stroke-dasharray="24 8" stroke-linecap="butt" stroke-miterlimit="1.45" stroke-width="4" shape-rendering="geometricPrecision" text-rendering="geometricPrecision"><path fill="none" d="M-830.1627 88.5785 L-792.9371 134.6392" clip-path="url(#clipPath2)" transform="matrix(1,0,0,1,1067,777)"/><path stroke="none" d="M-783.43 146.4027 L-787.3849 128.3841 L-800.2179 138.7555 Z" clip-path="url(#clipPath2)" transform="matrix(1,0,0,1,1067,777)"/><path fill="none" stroke-dasharray="none" stroke-width="5" d="M-740.0986 20.5872 L806.3468 -510.5385" clip-path="url(#clipPath2)" transform="matrix(1,0,0,1,1067,777)"/><path stroke="none" stroke-dasharray="none" stroke-width="5" d="M821.9521 -515.8981 L802.0047 -518.5632 L807.8516 -501.5392 Z" clip-path="url(#clipPath2)" transform="matrix(1,0,0,1,1067,777)"/></g><g stroke-linecap="butt" stroke-miterlimit="1.45" font-family="sans-serif" font-size="32" shape-rendering="geometricPrecision" text-rendering="geometricPrecision"><text x="-440.899" y="-356.161" stroke="none" clip-path="url(#clipPath2)" transform="matrix(1,0,0,1,1067,777)" xml:space="preserve">performs local service checks</text><text x="-469.798" y="-318.911" stroke="none" clip-path="url(#clipPath2)" transform="matrix(1,0,0,1,1067,777)" xml:space="preserve">sends metrics to carbon-graphite</text><text x="-438.626" y="-281.661" stroke="none" clip-path="url(#clipPath2)" transform="matrix(1,0,0,1,1067,777)" xml:space="preserve">sends events to sensu-server</text></g><g stroke-dasharray="24 8" stroke-linecap="butt" stroke-miterlimit="1.45" stroke-width="4" shape-rendering="geometricPrecision" text-rendering="geometricPrecision" transform="matrix(1,0,0,1,1067,777)"><path fill="none" d="M-532.8192 88.5854 L-578.7497 135.5886" clip-path="url(#clipPath2)"/><path stroke="none" d="M-589.3206 146.4063 L-571.8881 140.3711 L-583.6893 128.8392 Z" clip-path="url(#clipPath2)"/><path fill="none" stroke-dasharray="none" stroke-width="5" d="M-419.0509 20.5968 L836.9631 -509.4905" clip-path="url(#clipPath2)"/><path stroke="none" stroke-dasharray="none" stroke-width="5" d="M852.1647 -515.9062 L832.0817 -517.199 L839.0806 -500.6155 Z" clip-path="url(#clipPath2)"/><path fill="none" d="M482.1922 699.1584 L-711.8637 314.8477" clip-path="url(#clipPath2)"/><path stroke="none" d="M-726.2614 310.2138 L-713.0825 323.1223 L-708.0272 307.4157 Z" clip-path="url(#clipPath2)"/><rect width="365.156" height="41.25" x="-189.734" y="521.035" fill="#fff" stroke="none" clip-path="url(#clipPath2)"/></g><g stroke-linecap="butt" stroke-miterlimit="1.45" font-family="sans-serif" font-size="32" shape-rendering="geometricPrecision" text-rendering="geometricPrecision"><text x="-187.734" y="552.738" stroke="none" clip-path="url(#clipPath2)" transform="matrix(1,0,0,1,1067,777)" xml:space="preserve">remote service checks</text></g><g stroke-dasharray="24 8" stroke-linecap="butt" stroke-miterlimit="1.45" stroke-width="4" shape-rendering="geometricPrecision" text-rendering="geometricPrecision"><path fill="none" d="M565.4526 699.1785 L314.9613 319.1394" clip-path="url(#clipPath2)" transform="matrix(1,0,0,1,1067,777)"/><path stroke="none" d="M306.6376 306.5108 L308.8297 324.8277 L322.6064 315.7472 Z" clip-path="url(#clipPath2)" transform="matrix(1,0,0,1,1067,777)"/><path fill="none" stroke-dasharray="none" stroke-width="5" d="M598.1694 699.2016 L962.3997 -500.1467" clip-path="url(#clipPath2)" transform="matrix(1,0,0,1,1067,777)"/><path stroke="none" stroke-dasharray="none" stroke-width="5" d="M967.1943 -515.9348 L953.3522 -501.3268 L970.5754 -496.0962 Z" clip-path="url(#clipPath2)" transform="matrix(1,0,0,1,1067,777)"/><path fill="none" stroke-dasharray="none" stroke-width="5" d="M925.9067 767.1625 L706.4203 924.4478" clip-path="url(#clipPath2)" transform="matrix(1,0,0,1,1067,777)"/><path stroke="none" stroke-dasharray="none" stroke-width="5" d="M693.0085 934.0588 L712.882 930.8896 L702.3972 916.2585 Z" clip-path="url(#clipPath2)" transform="matrix(1,0,0,1,1067,777)"/><path fill="none" stroke-dasharray="none" stroke-width="5" d="M994.1952 699.1586 L984.6685 -499.4371" clip-path="url(#clipPath2)" transform="matrix(1,0,0,1,1067,777)"/><path stroke="none" stroke-dasharray="none" stroke-width="5" d="M984.5374 -515.9366 L975.6807 -497.8656 L993.6802 -498.0087 Z" clip-path="url(#clipPath2)" transform="matrix(1,0,0,1,1067,777)"/></g><g fill="#fff" stroke="#fff" stroke-linecap="butt" stroke-miterlimit="1.45" stroke-width="5" shape-rendering="geometricPrecision" text-rendering="geometricPrecision" transform="matrix(1,0,0,1,1067,777)"><rect width="497.156" height="78.5" x="872.152" y="-86.461" stroke="none" clip-path="url(#clipPath2)"/></g><g stroke-linecap="butt" stroke-miterlimit="1.45" font-family="sans-serif" font-size="32" shape-rendering="geometricPrecision" text-rendering="geometricPrecision"><text x="935.136" y="-54.758" stroke="none" clip-path="url(#clipPath2)" transform="matrix(1,0,0,1,1067,777)" xml:space="preserve">sends checks to clients</text><text x="874.152" y="-17.508" stroke="none" clip-path="url(#clipPath2)" transform="matrix(1,0,0,1,1067,777)" xml:space="preserve">receives results from clients</text><path fill="none" stroke-width="5" d="M1166.3149 -541.8644 L1559.6101 -477.7146" clip-path="url(#clipPath2)" transform="matrix(1,0,0,1,1067,777)"/><path stroke="none" stroke-width="5" d="M1575.8949 -475.0584 L1559.5785 -486.8387 L1556.6808 -469.0734 Z" clip-path="url(#clipPath2)" transform="matrix(1,0,0,1,1067,777)"/><path fill="none" stroke-width="5" d="M1769.9221 -483.8203 L1792.0774 -503.0059" clip-path="url(#clipPath2)" transform="matrix(1,0,0,1,1067,777)"/><path stroke="none" stroke-width="5" d="M1804.5507 -513.8072 L1785.0519 -508.8275 L1796.8351 -495.2204 Z" clip-path="url(#clipPath2)" transform="matrix(1,0,0,1,1067,777)"/><path fill="none" stroke-width="5" d="M630.9992 1045.3966 L650.9411 1116.2246" clip-path="url(#clipPath2)" transform="matrix(1,0,0,1,1067,777)"/><path stroke="none" stroke-width="5" d="M655.4128 1132.1071 L659.1978 1112.3416 L641.8714 1117.2198 Z" clip-path="url(#clipPath2)" transform="matrix(1,0,0,1,1067,777)"/><path fill="none" stroke-width="5" d="M1996.2468 -513.8232 L2018.4573 -494.5898" clip-path="url(#clipPath2)" transform="matrix(1,0,0,1,1067,777)"/><path stroke="none" stroke-width="5" d="M2030.9305 -483.7885 L2023.215 -502.3754 L2011.4318 -488.7682 Z" clip-path="url(#clipPath2)" transform="matrix(1,0,0,1,1067,777)"/></g><g stroke-dasharray="24 8" stroke-linecap="butt" stroke-miterlimit="1.45" stroke-width="4" shape-rendering="geometricPrecision" text-rendering="geometricPrecision" transform="matrix(1,0,0,1,1067,777)"><path fill="none" d="M630.4448 699.1765 L2015.7434 -406.3862" clip-path="url(#clipPath2)"/><path stroke="none" d="M2027.5652 -415.8208 L2009.5226 -411.9768 L2019.8148 -399.0803 Z" clip-path="url(#clipPath2)"/><rect width="425.797" height="78.5" x="1116.11" y="102.425" fill="#fff" stroke="none" clip-path="url(#clipPath2)"/></g><g stroke-linecap="butt" stroke-miterlimit="1.45" font-family="sans-serif" font-size="32" shape-rendering="geometricPrecision" text-rendering="geometricPrecision"><text x="1174.258" y="134.128" stroke="none" clip-path="url(#clipPath2)" transform="matrix(1,0,0,1,1067,777)" xml:space="preserve">checks graphite for</text><text x="1118.11" y="171.378" stroke="none" clip-path="url(#clipPath2)" transform="matrix(1,0,0,1,1067,777)" xml:space="preserve">metric threshold breaches</text></g><g stroke-dasharray="24 8" stroke-linecap="butt" stroke-miterlimit="1.45" stroke-width="4" shape-rendering="geometricPrecision" text-rendering="geometricPrecision"><path fill="none" d="M433.1205 729.2403 L-329.7306 709.8849" clip-path="url(#clipPath2)" transform="matrix(1,0,0,1,1067,777)"/><path stroke="none" d="M-344.8507 709.5013 L-328.5652 718.1672 L-328.1468 701.6725 Z" clip-path="url(#clipPath2)" transform="matrix(1,0,0,1,1067,777)"/><path fill="none" stroke-dasharray="none" stroke-width="5" d="M1128.1012 733.1663 L1937.1196 733.1663" clip-path="url(#clipPath2)" transform="matrix(1,0,0,1,1067,777)"/><path stroke="none" stroke-dasharray="none" stroke-width="5" d="M1953.6196 733.1663 L1935.6196 724.1663 L1935.6196 742.1663 Z" clip-path="url(#clipPath2)" transform="matrix(1,0,0,1,1067,777)"/></g><g stroke-linecap="butt" stroke-miterlimit="1.45" font-family="sans-serif" font-size="32" shape-rendering="geometricPrecision" text-rendering="geometricPrecision"><text x="1635.164" y="637.13" stroke="none" clip-path="url(#clipPath2)" transform="matrix(1,0,0,1,1067,777)" xml:space="preserve">automated</text><text x="1602.75" y="674.38" stroke="none" clip-path="url(#clipPath2)" transform="matrix(1,0,0,1,1067,777)" xml:space="preserve">event handling</text><path fill="none" stroke-width="5" d="M819.7216 1167.476 L909.6262 1168.2878" clip-path="url(#clipPath2)" transform="matrix(1,0,0,1,1067,777)"/><path stroke="none" stroke-width="5" d="M926.1255 1168.4369 L908.2076 1159.2747 L908.045 1177.2739 Z" clip-path="url(#clipPath2)" transform="matrix(1,0,0,1,1067,777)"/><path fill="none" stroke-width="5" d="M2054.3113 -415.8267 L1321.6863 1155.1649" clip-path="url(#clipPath2)" transform="matrix(1,0,0,1,1067,777)"/><path stroke="none" stroke-width="5" d="M1314.7126 1170.1188 L1330.4769 1157.6093 L1314.1636 1150.0017 Z" clip-path="url(#clipPath2)" transform="matrix(1,0,0,1,1067,777)"/><path fill="none" stroke-width="5" d="M984.1846 767.1468 L1032.4033 918.335" clip-path="url(#clipPath2)" transform="matrix(1,0,0,1,1067,777)"/><path stroke="none" stroke-width="5" d="M1037.4169 934.0549 L1040.522 914.1713 L1023.373 919.6406 Z" clip-path="url(#clipPath2)" transform="matrix(1,0,0,1,1067,777)"/></g><g fill="#fff" stroke="#fff" stroke-linecap="butt" stroke-miterlimit="1.45" stroke-width="5" shape-rendering="geometricPrecision" text-rendering="geometricPrecision" transform="matrix(1,0,0,1,1067,777)"><rect width="344.938" height="78.5" x="974.614" y="811.214" stroke="none" clip-path="url(#clipPath2)"/></g><g stroke-linecap="butt" stroke-miterlimit="1.45" font-family="sans-serif" font-size="32" shape-rendering="geometricPrecision" text-rendering="geometricPrecision"><text x="976.614" y="842.918" stroke="none" clip-path="url(#clipPath2)" transform="matrix(1,0,0,1,1067,777)" xml:space="preserve">event mutator - kedb</text><text x="1004.176" y="880.168" stroke="none" clip-path="url(#clipPath2)" transform="matrix(1,0,0,1,1067,777)" xml:space="preserve">records for event</text><path fill="none" stroke-width="5" d="M1075.2848 1045.3732 L1102.5089 1120.6963" clip-path="url(#clipPath2)" transform="matrix(1,0,0,1,1067,777)"/><path stroke="none" stroke-width="5" d="M1108.1176 1136.2137 L1110.4631 1116.2263 L1093.5349 1122.3448 Z" clip-path="url(#clipPath2)" transform="matrix(1,0,0,1,1067,777)"/></g><g stroke-dasharray="24 8" stroke-linecap="butt" stroke-miterlimit="1.45" stroke-width="4" shape-rendering="geometricPrecision" text-rendering="geometricPrecision"><path fill="none" d="M470.0296 767.1559 L-370.8463 1009.7284" clip-path="url(#clipPath2)" transform="matrix(1,0,0,1,1067,777)"/><path stroke="none" d="M-385.3788 1013.9206 L-367.2386 1017.274 L-371.8119 1001.4205 Z" clip-path="url(#clipPath2)" transform="matrix(1,0,0,1,1067,777)"/><path fill="none" stroke-dasharray="none" stroke-width="5" d="M1314.7329 1170.1914 L1937.132 1170.1914" clip-path="url(#clipPath2)" transform="matrix(1,0,0,1,1067,777)"/><path stroke="none" stroke-dasharray="none" stroke-width="5" d="M1953.632 1170.1914 L1935.632 1161.1914 L1935.632 1179.1914 Z" clip-path="url(#clipPath2)" transform="matrix(1,0,0,1,1067,777)"/></g><g stroke-linecap="butt" stroke-miterlimit="1.45" font-family="sans-serif" font-size="32" shape-rendering="geometricPrecision" text-rendering="geometricPrecision"><text x="1601.295" y="1070.271" stroke="none" clip-path="url(#clipPath2)" transform="matrix(1,0,0,1,1067,777)" xml:space="preserve">visual system</text><text x="1547.202" y="1107.521" stroke="none" clip-path="url(#clipPath2)" transform="matrix(1,0,0,1,1067,777)" xml:space="preserve">state representation</text></g></g></svg>